<svg xmlns="http://www.w3.org/2000/svg" width="220" height="36" fill="none" viewBox="0 0 220 36">
    <path fill="url(#paint0_linear)" d="M15.275 0c1.008 0 1.73.975 1.434 1.94l-7.663 25c-.193.63-.775 1.06-1.434 1.06H2.029c-1.009 0-1.73-.975-1.434-1.94L4.48 13.385l.005-.014.004-.018L8.257 1.06C8.45.43 9.032 0 9.691 0h5.584z"/>
    <path fill="url(#paint1_linear)" d="M25.287 0c1.009 0 1.73.975 1.434 1.94l-7.662 25c-.194.63-.775 1.06-1.434 1.06H12.04c-1.008 0-1.73-.975-1.434-1.94l3.799-12.393L18.27 1.06C18.463.43 19.045 0 19.704 0h5.583z"/>
    <path fill="url(#paint2_linear)" d="M35.802 27.354c.098.32-.142.646-.478.646h-7.671c-.22 0-.414-.143-.479-.353l-1.44-4.693v-.004-.004L23.665 16.2c-.03-.095-.03-.197 0-.293l3.838-12.516c.144-.471.811-.471.956 0l7.342 23.962z"/>
    <path fill="#D3D3D3" d="M16.196.823L1.108 27.176 9.187.823h7.009zM26.208.823L11.12 27.176 19.2.823h7.008z" opacity=".4"/>
    <path fill="#7D589F" d="M14.917 0c-1.055.11-2.109.181-3.167.235-.528.029-1.055.057-1.582.074-.779.03-1.454.555-1.67 1.304l-.05.178-.503 1.676c-.164.556-.348 1.112-.52 1.668-.17.556-.35 1.112-.535 1.664-.183.551-.363 1.111-.56 1.659-.196.548-.38 1.104-.58 1.651-.396 1.095-.809 2.178-1.263 3.253L7.5 3.535C8.143 1.435 10.082 0 12.28 0h2.638z" opacity=".3"/>
    <path fill="#000" d="M25.068 0c-1.079.11-2.158.181-3.237.235-.539.032-1.078.057-1.618.074-.8.03-1.494.568-1.715 1.338l-.05.177-.511 1.713-.532 1.704c-.175.573-.36 1.137-.547 1.7-.188.565-.372 1.133-.572 1.697-.2.565-.384 1.129-.593 1.685-.4 1.124-.825 2.24-1.287 3.343L17.51 3.535C18.155 1.435 20.095 0 22.291 0h2.777z" opacity=".3"/>
    <path fill="#1D083D" d="M58.083 23.24h-6L51.171 26h-4.944l6.168-16.92h5.424L63.963 26h-4.968l-.912-2.76zm-1.176-3.6l-1.824-5.472-1.8 5.472h3.624zm14.325 6.528c-1.216 0-2.304-.2-3.264-.6-.944-.416-1.696-.976-2.256-1.68-.544-.72-.848-1.528-.912-2.424h4.56c.064.432.264.768.6 1.008.336.24.752.36 1.248.36.384 0 .688-.08.912-.24.224-.16.336-.368.336-.624 0-.336-.184-.584-.552-.744-.368-.16-.976-.336-1.824-.528-.96-.192-1.76-.408-2.4-.648-.64-.24-1.2-.632-1.68-1.176-.464-.544-.696-1.28-.696-2.208 0-.8.216-1.52.648-2.16.432-.656 1.064-1.176 1.896-1.56.848-.384 1.864-.576 3.048-.576 1.76 0 3.144.432 4.152 1.296 1.008.864 1.592 2 1.752 3.408h-4.248c-.08-.432-.272-.76-.576-.984-.288-.24-.68-.36-1.176-.36-.384 0-.68.072-.888.216-.192.144-.288.344-.288.6 0 .32.184.568.552.744.368.16.96.328 1.776.504.976.208 1.784.44 2.424.696.656.256 1.224.672 1.704 1.248.496.56.744 1.328.744 2.304 0 .784-.232 1.488-.696 2.112-.448.624-1.096 1.12-1.944 1.488-.832.352-1.816.528-2.952.528zm22.401-13.632l-8.544 19.872h-5.112l3.216-6.984-5.52-12.888h5.232l2.832 7.632 2.736-7.632h5.16zm10.039-.12c1.552 0 2.784.52 3.696 1.56.912 1.024 1.368 2.416 1.368 4.176V26h-4.704v-7.224c0-.768-.2-1.368-.6-1.8-.4-.448-.936-.672-1.608-.672-.704 0-1.256.224-1.656.672-.4.432-.6 1.032-.6 1.8V26h-4.704V12.536h4.703v1.92c.417-.608.977-1.096 1.681-1.464.704-.384 1.512-.576 2.424-.576zm6.877 6.84c0-1.392.288-2.608.864-3.648.576-1.04 1.376-1.84 2.4-2.4 1.04-.56 2.224-.84 3.552-.84 1.712 0 3.152.472 4.32 1.416 1.168.928 1.92 2.232 2.256 3.912h-4.992c-.288-.88-.848-1.32-1.68-1.32-.592 0-1.064.248-1.416.744-.336.48-.504 1.192-.504 2.136 0 .944.168 1.664.504 2.16.352.496.824.744 1.416.744.848 0 1.408-.44 1.68-1.32h4.992c-.336 1.664-1.088 2.968-2.256 3.912-1.168.944-2.608 1.416-4.32 1.416-1.328 0-2.512-.28-3.552-.84-1.024-.56-1.824-1.36-2.4-2.4-.576-1.04-.864-2.264-.864-3.672zm36.274-10.032L142.071 26h-1.872l-4.224-14.304L131.655 26l-1.824.024-4.656-16.8h1.8l3.84 14.712 4.296-14.712h1.872l4.176 14.712 3.864-14.712h1.8zm8.306 16.968c-1.232 0-2.344-.272-3.336-.816-.976-.56-1.752-1.344-2.328-2.352-.56-1.024-.84-2.216-.84-3.576 0-1.36.288-2.544.864-3.552.576-1.024 1.36-1.808 2.352-2.352.992-.56 2.104-.84 3.336-.84 1.232 0 2.344.28 3.336.84 1.008.544 1.792 1.328 2.352 2.352.576 1.008.864 2.192.864 3.552 0 1.344-.288 2.528-.864 3.552-.576 1.024-1.368 1.816-2.376 2.376-1.008.544-2.128.816-3.36.816zm0-1.464c.864 0 1.664-.192 2.4-.576.736-.4 1.328-.992 1.776-1.776.464-.8.696-1.776.696-2.928s-.224-2.12-.672-2.904c-.448-.8-1.04-1.392-1.776-1.776-.736-.4-1.536-.6-2.4-.6-.864 0-1.664.2-2.4.6-.736.384-1.328.976-1.776 1.776-.432.784-.648 1.752-.648 2.904s.216 2.128.648 2.928c.448.784 1.032 1.376 1.752 1.776.736.384 1.536.576 2.4.576zm11.342-9.504c.368-.816.928-1.448 1.68-1.896.768-.448 1.704-.672 2.808-.672v1.752h-.456c-1.216 0-2.192.328-2.928.984-.736.656-1.104 1.752-1.104 3.288V26h-1.68V12.896h1.68v2.328zM180.566 26l-5.4-5.88V26h-1.68V8.24h1.68v10.512l5.28-5.856h2.352l-6.216 6.528L182.846 26h-2.28zm5.292-15.576c-.336 0-.624-.12-.864-.36s-.36-.536-.36-.888.12-.64.36-.864c.24-.24.528-.36.864-.36.336 0 .624.12.864.36.24.224.36.512.36.864s-.12.648-.36.888-.528.36-.864.36zm.84 2.472V26h-1.68V12.896h1.68zm9.948-.24c1.568 0 2.848.488 3.84 1.464.992.96 1.488 2.36 1.488 4.2V26h-1.656v-7.488c0-1.424-.36-2.512-1.08-3.264-.704-.752-1.672-1.128-2.904-1.128-1.264 0-2.272.4-3.024 1.2-.752.8-1.128 1.976-1.128 3.528V26h-1.68V12.896h1.68v2.232c.416-.8 1.016-1.408 1.8-1.824.784-.432 1.672-.648 2.664-.648zm14.54.048c1.232 0 2.304.288 3.216.864.912.576 1.568 1.304 1.968 2.184v-2.856h1.68v13.44c0 1.2-.264 2.264-.792 3.192-.512.928-1.232 1.64-2.16 2.136-.928.512-1.984.768-3.168.768-1.68 0-3.08-.4-4.2-1.2-1.104-.8-1.792-1.888-2.064-3.264h1.656c.288.912.832 1.64 1.632 2.184.816.544 1.808.816 2.976.816.848 0 1.608-.184 2.28-.552.672-.352 1.2-.88 1.584-1.584.384-.704.576-1.536.576-2.496v-3.24c-.416.896-1.08 1.64-1.992 2.232-.896.576-1.96.864-3.192.864-1.2 0-2.28-.28-3.24-.84-.944-.56-1.688-1.352-2.232-2.376-.528-1.024-.792-2.208-.792-3.552 0-1.344.264-2.52.792-3.528.544-1.024 1.288-1.808 2.232-2.352.96-.56 2.04-.84 3.24-.84zm5.184 6.744c0-1.056-.216-1.984-.648-2.784-.432-.8-1.024-1.416-1.776-1.848-.736-.432-1.552-.648-2.448-.648-.928 0-1.76.208-2.496.624-.736.416-1.32 1.024-1.752 1.824-.416.784-.624 1.72-.624 2.808 0 1.072.208 2.016.624 2.832.432.8 1.016 1.416 1.752 1.848.736.416 1.568.624 2.496.624.896 0 1.712-.216 2.448-.648.752-.432 1.344-1.048 1.776-1.848.432-.8.648-1.728.648-2.784z"/>
    <defs>
        <linearGradient id="paint0_linear" x1="8.652" x2="8.652" y1=".308" y2="28.364" gradientUnits="userSpaceOnUse">
            <stop stop-color="#43256F"/>
            <stop offset=".983" stop-color="#994574"/>
        </linearGradient>
        <linearGradient id="paint1_linear" x1="18.664" x2="18.664" y1=".308" y2="28.364" gradientUnits="userSpaceOnUse">
            <stop stop-color="#43256F"/>
            <stop offset=".983" stop-color="#994574"/>
        </linearGradient>
        <linearGradient id="paint2_linear" x1="32.744" x2="19.615" y1="28.34" y2="20.624" gradientUnits="userSpaceOnUse">
            <stop stop-color="#7D589F"/>
            <stop offset="1" stop-color="#43256F"/>
        </linearGradient>
    </defs>
</svg>
