<svg xmlns="http://www.w3.org/2000/svg" viewBox="0 0 341.36 65.63"><defs><style>.cls-1{fill:#2ab782;}.cls-2{fill:#fff0d1;}.cls-3{fill:#002649;}</style></defs><title>资源 3</title><g id="图层_2" data-name="图层 2"><g id="图层_1-2" data-name="图层 1"><path class="cls-1" d="M28.31,65.54.41,49.66A.84.84,0,0,1,0,49V16.84a.65.65,0,0,1,.33-.56L28.31.09a.61.61,0,0,1,.64,0L57,16.36a.65.65,0,0,1,.32.56V48.75a1.24,1.24,0,0,1-.63,1.08L29,65.54A.61.61,0,0,1,28.31,65.54Z"/><polygon class="cls-2" points="9.43 32.94 4.7 24.75 28.63 10.93 38.45 16.53 9.43 32.94"/><polygon class="cls-3" points="14.15 41.13 9.43 32.94 38.45 16.53 38.45 27.21 14.15 41.13"/><polygon class="cls-2" points="18.88 49.32 14.15 41.13 38.45 27.21 47.49 32.99 18.88 49.32"/><polygon class="cls-3" points="23.61 57.51 18.88 49.32 47.49 32.99 47.49 43.63 23.61 57.51"/><path class="cls-3" d="M4.7,24.75.2,16.82a.41.41,0,0,1,.16-.56l28-16.2a.19.19,0,0,1,.28.17v10.7Z"/><path class="cls-2" d="M28.42,65.37l-4.8-7.85a0,0,0,0,1,0,0L47.49,43.64h0l9.44,5.58a.29.29,0,0,1,0,.5L29,65.52A.42.42,0,0,1,28.42,65.37Z"/><path class="cls-3" d="M83.64,20.41h5.22l11,25.93H94l-2.36-5.78H80.74l-2.35,5.78H72.61Zm6,15.15-3.42-8.34-3.42,8.34Z"/><path class="cls-3" d="M101.73,43.73l2.39-3.68a11.17,11.17,0,0,0,6.21,2.35c1.62,0,2.36-.59,2.36-1.47v-.07c0-1.22-1.92-1.62-4.08-2.28-2.76-.81-5.89-2.1-5.89-5.92v-.07c0-4,3.24-6.26,7.21-6.26a13.66,13.66,0,0,1,7.35,2.28l-2.13,3.86a11.66,11.66,0,0,0-5.33-1.83c-1.36,0-2.06.58-2.06,1.36v.07c0,1.1,1.88,1.62,4,2.35,2.76.92,6,2.25,6,5.85v.07c0,4.38-3.27,6.36-7.53,6.36A13.85,13.85,0,0,1,101.73,43.73Z"/><path class="cls-3" d="M120.92,51l1.88-4a5.07,5.07,0,0,0,2.39.78,1.86,1.86,0,0,0,1.94-1.29l-7.72-19.78h5.92l4.49,13.42,4.3-13.42h5.81l-7.57,20.18c-1.51,4-3.13,5.52-6.47,5.52A9.3,9.3,0,0,1,120.92,51Z"/><path class="cls-3" d="M143.24,26.63h5.59v2.79a7,7,0,0,1,5.77-3.16c4.23,0,6.69,2.79,6.69,7.32V46.34H155.7v-11c0-2.64-1.25-4-3.38-4s-3.49,1.37-3.49,4v11h-5.59Z"/><path class="cls-3" d="M165.18,36.59v-.07a10.12,10.12,0,0,1,10.34-10.26,9.66,9.66,0,0,1,7.86,3.31L180,33.25a5.73,5.73,0,0,0-4.48-2.17c-2.8,0-4.78,2.46-4.78,5.36v.08c0,3,2,5.44,5,5.44a6.24,6.24,0,0,0,4.52-2.1l3.27,3.31a9.9,9.9,0,0,1-8.05,3.61A10.07,10.07,0,0,1,165.18,36.59Z"/><path class="cls-3" d="M185.74,20.6h6.06L197.13,38l5.78-17.5h4.85L213.53,38l5.33-17.43h5.92L216,46.52h-4.92l-5.81-16.84-5.81,16.84h-4.93Z"/><path class="cls-3" d="M225,36.59v-.07a10.35,10.35,0,0,1,10.7-10.26c6.11,0,10.63,4.52,10.63,10.18v.08a10.67,10.67,0,0,1-21.33.07Zm15.81,0v-.07a5.23,5.23,0,0,0-5.18-5.44,5,5,0,0,0-5.11,5.36v.08A5.24,5.24,0,0,0,235.73,42,5,5,0,0,0,240.84,36.59Z"/><path class="cls-3" d="M250.4,26.63H256v4c1.14-2.72,3-4.49,6.29-4.34v5.85H262c-3.71,0-6,2.24-6,7v7.28H250.4Z"/><path class="cls-3" d="M265.77,19.5h5.59V33.8l6.54-7.17h6.69l-7.5,7.76,7.76,12h-6.4l-5.14-8.06-1.95,2.06v6h-5.59Z"/><path class="cls-3" d="M287.64,19.5h5.89v5h-5.89Zm.15,7.13h5.59V46.34h-5.59Z"/><path class="cls-3" d="M298.64,26.63h5.58v2.79A7,7,0,0,1,310,26.26c4.22,0,6.69,2.79,6.69,7.32V46.34H311.1v-11c0-2.64-1.25-4-3.38-4s-3.5,1.37-3.5,4v11h-5.58Z"/><path class="cls-3" d="M321.65,50.23,323.56,46a12.85,12.85,0,0,0,6.66,1.8c3.82,0,5.62-1.83,5.62-5.37v-.95a7.72,7.72,0,0,1-6.43,3.2c-4.6,0-8.75-3.35-8.75-9.19v-.08c0-5.88,4.22-9.19,8.75-9.19a8,8,0,0,1,6.36,2.94V26.63h5.59V41.89c0,3.53-.85,6.1-2.51,7.75-1.83,1.84-4.66,2.65-8.49,2.65A18.6,18.6,0,0,1,321.65,50.23Zm14.19-14.7v-.08a4.81,4.81,0,0,0-9.6,0v.08A4.5,4.5,0,0,0,331,40.09,4.56,4.56,0,0,0,335.84,35.53Z"/></g></g></svg>