<svg xmlns="http://www.w3.org/2000/svg" viewBox="0 0 139.49 159.59"><defs><style>.cls-1{fill:#2ab782;}.cls-2{fill:#fff0d1;}.cls-3{fill:#002649;}</style></defs><title>资源 2</title><g id="图层_2" data-name="图层 2"><g id="图层_1-2" data-name="图层 1"><path class="cls-1" d="M68.85,159.39,1,120.76A2,2,0,0,1,0,119V41a1.58,1.58,0,0,1,.78-1.36L68.83.21a1.59,1.59,0,0,1,1.58,0l68.3,39.58a1.57,1.57,0,0,1,.78,1.37v77.4a3,3,0,0,1-1.53,2.62L70.4,159.39A1.58,1.58,0,0,1,68.85,159.39Z"/><polygon class="cls-2" points="22.92 80.1 11.42 60.18 69.62 26.57 93.5 40.19 22.92 80.1"/><polygon class="cls-3" points="34.42 100.02 22.92 80.1 93.5 40.19 93.5 66.18 34.42 100.02"/><polygon class="cls-2" points="45.92 119.94 34.42 100.02 93.5 66.18 115.5 80.23 45.92 119.94"/><polygon class="cls-3" points="57.42 139.85 45.92 119.94 115.5 80.23 115.5 106.11 57.42 139.85"/><path class="cls-3" d="M11.42,60.18.5,40.9a1,1,0,0,1,.37-1.36L68.93.15a.46.46,0,0,1,.69.4v26Z"/><path class="cls-2" d="M69.1,159,57.44,139.89a0,0,0,0,1,0-.06l58-33.71a0,0,0,0,1,0,0l22.94,13.58a.7.7,0,0,1,0,1.21L70.49,159.34A1,1,0,0,1,69.1,159Z"/></g></g></svg>